<?xml version="1.0" encoding="UTF-8"?>
<svg width="409px" height="409px" viewBox="0 0 409 409" version="1.1" xmlns="http://www.w3.org/2000/svg" xmlns:xlink="http://www.w3.org/1999/xlink">
  <!-- Generator: Sketch 42 (36781) - http://www.bohemiancoding.com/sketch -->
  <title>Circle_combined</title>
  <desc>Created with Sketch.</desc>
  <defs></defs>
  <g id="Alternative" stroke="none" stroke-width="1" fill="none" fill-rule="evenodd" opacity="0.03">
    <g id="Interview_mode_alter" transform="translate(-516.000000, -130.000000)" fill="#0D007A">
      <g id="Header" transform="translate(0.000000, -1.000000)">
        <path d="M517.167566,317.38866 L601.593706,169.67206 C554.022126,203.81634 522.462768,257.568163 517.167566,317.38866 Z M622.981611,156.25178 C633.111946,150.743466 643.795118,146.057512 654.955911,142.289193 L520.701712,377.188598 C519.786585,372.780943 518.996817,368.320638 518.365003,363.798905 C517.368392,356.670941 516.759143,349.578077 516.509677,342.540371 L622.981611,156.25178 Z M692.210495,133.4794 C694.18366,133.203608 696.153064,132.964171 698.121215,132.747298 L534.337235,419.312537 C530.657922,411.127788 527.48757,402.638415 524.885098,393.868236 L671.422061,137.479635 C678.206539,135.809841 685.140196,134.467236 692.210495,133.4794 Z M712.457751,131.663687 C720.45446,131.341512 728.377206,131.499465 736.203425,132.097432 L553.127809,452.415828 C548.609837,445.958539 544.454156,439.211668 540.685837,432.205303 L712.457751,131.663687 Z M749.123143,133.493942 C756.422851,134.525654 763.616003,135.959771 770.681288,137.756179 L575.523482,479.214016 C570.369936,474.022862 565.495943,468.53962 560.910277,462.800643 L749.123143,133.493942 Z M782.473644,141.124474 C789.195442,143.274397 795.776838,145.774073 802.20028,148.59091 L600.854709,500.877338 C595.154594,496.752997 589.673859,492.331552 584.425039,487.641838 L782.473644,141.124474 Z M812.99427,153.70572 C819.192064,156.866044 825.220622,160.329738 831.051112,164.094296 L628.840558,517.892564 C622.626467,514.763581 616.582865,511.326212 610.733572,507.59174 L812.99427,153.70572 Z M840.893244,170.874512 C846.575809,175.031447 852.042754,179.477963 857.271516,184.199018 L659.451067,530.31523 C652.711718,528.199155 646.103997,525.748368 639.660497,522.962871 L840.893244,170.874512 Z M866.134462,192.693155 C871.269204,197.920663 876.126901,203.433992 880.688748,209.20807 L692.894584,537.783923 C685.573565,536.791072 678.359102,535.398324 671.271253,533.635763 L866.134462,192.693155 Z M888.426589,219.671987 C892.920742,226.174406 897.057619,232.960138 900.794598,240.012886 L729.684585,539.39743 C721.66155,539.769749 713.707464,539.668208 705.852412,539.112863 L888.426589,219.671987 Z M907.095312,252.990144 C910.743286,261.247602 913.857226,269.823474 916.412061,278.668869 L770.894274,533.276106 C763.655993,535.113882 756.250983,536.586861 748.684258,537.643645 C747.143585,537.859264 745.605419,538.049811 744.068506,538.229076 L907.095312,252.990144 Z M922.529625,307.324892 C923.62151,315.139828 924.239534,322.909636 924.435095,330.614256 L819.678084,513.901731 C809.480055,519.580535 798.707878,524.420681 787.443036,528.321882 L920.512584,295.49593 C921.289815,299.395877 921.971773,303.335939 922.529625,307.324892 Z M923.467317,356.308901 L841.360335,499.967601 C887.107928,466.259574 917.592951,414.232703 923.467317,356.308901 Z" id="Circle_combined"></path>
      </g>
    </g>
  </g>
</svg>