<svg width="115" height="120" viewBox="0 0 115 120" xmlns="http://www.w3.org/2000/svg" xmlns:xlink="http://www.w3.org/1999/xlink"><defs><path d="M54 20.333c0 1.234.705 2.31 1.75 2.888V27h3.5v-3.78c1.045-.576 1.75-1.653 1.75-2.887C61 18.493 59.433 17 57.5 17S54 18.493 54 20.333z" id="a"/></defs><g fill="none" fill-rule="evenodd"><path d="M0 28.384C0 96.996 56.54 119.62 57.493 120 58.46 119.62 115 96.996 115 28.384L57.507 0 0 28.384z" fill="#904BD1"/><path d="M88 96.2H27V71.85C27 67.513 30.093 64 33.908 64h47.184C84.907 64 88 67.513 88 71.848V96.2z" fill="#DDD"/><path d="M86 98l-28.03 20L29.16 99.04 29 76.572C29 69.077 32.038 65 35.785 65h43.43c3.747 0 6.54 4 6.785 10v23z" fill="#7965C8"/><path d="M31 52.86C31 38.578 42.86 27 57.5 27 72.135 27 84 38.56 84 52.86v4.645C84 66.063 76.88 73 68.098 73H46.902C38.12 73 31 66.063 31 57.505V52.86z" fill="#DBDBDB"/><path d="M33 52.387v6.04C33 65.373 38.905 71 46.194 71h22.612C76.094 71 82 65.37 82 58.428v-6.04C82 39.457 71.038 29 57.5 29 43.968 29 33 39.47 33 52.387" fill="#7965C8"/><path d="M57.5 58C73.076 58 75 53.338 75 47.587 75 41.837 67.165 41 57.5 41S40 41.837 40 47.587 41.924 58 57.5 58m-7.875-6.942c1.45 0 3.46-.713 3.46-2.15 0-1.438-2.01-3.056-3.46-3.056-1.45 0-2.625 1.166-2.625 2.603 0 1.438 1.175 2.603 2.625 2.603m15.75 0c1.45 0 2.625-1.165 2.625-2.603 0-1.437-1.175-2.603-2.625-2.603s-4.088 1.166-4.088 2.603c0 1.438 2.64 2.603 4.088 2.603" fill="#725FBF"/><path d="M75 45.504c0-3.066-2.193-5.826-5.69-7.745-3.112-1.71-7.258 0-11.81 0-4.956 0-9.43-1.516-12.616.47C41.86 40.117 40 42.68 40 45.504 40 51.3 41.924 56 57.5 56S75 51.3 75 45.504zm-25.375 3.5c1.45 0 4.006-.903 4.006-2.352 0-1.45-1.38-2.34-4.005-2.897C48.207 43.455 47 44.93 47 46.38c0 1.448 1.175 2.623 2.625 2.623M68 46.38c0-1.45-1.175-2.625-2.625-2.625S61 45.203 61 46.652c0 1.45 2.926 2.35 4.375 2.35 1.45 0 2.625-1.174 2.625-2.623z" fill="#DDD"/><path d="M57.5 93c1.933 0 3.5-1.567 3.5-3.5S59.433 86 57.5 86 54 87.567 54 89.5s1.567 3.5 3.5 3.5" fill="#DADADA"/><path d="M60.89 90c.072-.255.11-.523.11-.8 0-1.767-1.567-3.2-3.5-3.2S54 87.433 54 89.2c0 .277.04.545.11.8.39-1.38 1.76-2.4 3.39-2.4 1.63 0 3 1.02 3.39 2.4" fill="#FFF"/><use fill="#D8D8D8" xlink:href="#a"/><path d="M57.507.006V0h-.014v.006L0 28.386c0 68.606 56.54 91.23 57.493 91.608V120l.007-.004.007.004v-.006C58.46 119.614 115 96.992 115 28.387L57.507.007m0 114.99V115h-.016v-.004C56.625 114.65 5 93.906 5 31.026l52.49-26.02V5l.01.003.007-.003v.006L110 31.026c0 62.88-51.624 83.623-52.493 83.97" fill="#5C41A1"/></g></svg>