<svg width="115" height="120" viewBox="0 0 115 120" xmlns="http://www.w3.org/2000/svg"><g fill="none" fill-rule="evenodd"><path d="M57.507 1.006V1h-.014v.006L1 28.914c0 67.462 55.557 89.708 56.493 90.08V119l.007-.003.007.003v-.006c.937-.372 56.493-22.618 56.493-90.08L57.507 1.006" fill="#00CD79"/><path d="M57.435 79.395l57.43-48.973c.004-.43.016-.855.016-1.29l-1.708-.836-55.737 47.53v3.57zm0 7.137l57.123-48.71c.09-1.233.16-2.485.212-3.75L57.435 82.96v3.57zm0-13.71l53.5-45.622-2.66-1.302-50.84 43.354v3.57zm0-6.763l48.462-41.328-2.658-1.3-45.805 39.057v3.57zm0 40.946l52.34-44.633c.515-1.563.998-3.16 1.444-4.8L57.434 103.44v3.568zm0-48.085L100.58 22.13l-2.657-1.3L57.435 55.35v3.57zm0 56l47.39-40.414c.917-1.862 1.786-3.792 2.606-5.79l-49.995 42.635v3.57zm0-21.25l56.25-47.968c.195-1.318.372-2.652.52-4.012L57.436 90.1v3.57zm0 6.762l54.736-46.676c.328-1.42.63-2.864.904-4.34l-55.64 47.447v3.57zm0-89.972l7.05-6.01-2.658-1.303-4.392 3.745v3.568zm0 6.762L69.52 6.916l-2.656-1.302-9.43 8.04v3.568zm0 6.574l16.983-14.48L71.76 8.01 57.435 20.227v3.57zm0 14.84L85.47 14.727l-2.657-1.302-25.378 21.64v3.57zm0 6.76l33.073-28.2-2.66-1.303-30.413 25.935v3.568zm0-13.898l22.72-19.374-2.66-1.303-20.06 17.11v3.568zm0 20.474l37.97-32.378-2.66-1.302-35.31 30.11v3.57z" fill="#00AF67"/><path d="M66.715 65.426l-.514-7.744-2.368-4.69c-.1.27-.203.54-.337.8-.45.87-1.212 1.64-1.82 2.455.99 3.962-2.098 7.898-1.75 10.2-1.548 2.266-4.72 6.43-4.72 6.43l21.84 32.58L93.43 86.9 66.715 65.426" fill="#007BAB"/><path d="M67.827 67.9c-2.432 1.91-8.517 4.867-9.626 5.46l-1.33 2.004 19.093 28.478c1.944-.913 4.597-2.622 4.597-2.622L62.297 76.894l1.44-2.63 8.632 7.56s-5.978-6.573-6.863-7.78c1.114-1.654 1.942-4.612 2.32-6.143" fill="#0064A0"/><path d="M70.604 64.653l-.914-1.8.216-1.46-.573-2.158-1.73-.9-.355-1.863-1.284-.843.548-1.287-.996-3.046-2.74-1.127-1.762 1.227-1.406 1.512-4.254-4.213-9.37 7.67 1.032 9.06L20.303 86.9l16.382 18.554L58.2 73.36c1.3-.694 9.412-4.624 10.51-6.328.15-.235 1.894-2.38 1.894-2.38" fill="#34587A"/><path d="M56.865 75.355l-18.707 27.903c9.01 7.218 16.83 10.757 18.81 11.595-1.97-.834-9.73-4.35-18.688-11.502l18.59-27.986-.005-.01" fill="#00A871"/><path d="M60.422 52.407c-.13.153-.248.316-.343.498-.055.104-.08.216-.093.327l-.132-.152c0 2.922-5.313 5.845-5.313 5.845l-1.476-1.462.523-.982c-.25-.21-.582-.518-.918-.84l.21 6.524-.657 2.14-1.84.56-1.42 1.81-2.107-.512-1.54 1.308c.184.086.454.128.783.128 1.674 0 4.9-1.078 6.567-2.976 1.042-1.185.664-4.237.664-4.237l5.83-3.945s.8-2.75 1.262-4.033m2.355-2.237l-1.26.876c-.084.195-.2.37-.333.53.813-.304 1.4-.425 1.857-.425.885 0 1.282.454 1.876.907.96.73.148 3.8.148 4.09 0 .293.073 2.12.738 2.485.664.366 1.697 1.24 1.697 1.24s.22 1.828.442 1.9c.22.074 1.55 2.41 1.55 2.41s-.813.732-2.14 2.047c-2.814 2.784-6.74 4.02-8.728 4.02-.57 0-.98-.1-1.16-.296 3.874-1.21 4.12-1.803 5.518-2.745-2.06 1.126-9.65 3.256-9.65 3.256L32.12 97.98l-.087-.083c-.34.384-.682.773-1.007 1.152l5.657 6.406L58.2 73.36c1.3-.694 9.412-4.624 10.51-6.328.15-.235 1.894-2.38 1.894-2.38l-.02-.038-.894-1.76.216-1.462-.573-2.157-.093-.05-1.637-.85-.355-1.863-1.284-.843.548-1.287-.996-3.046-2.74-1.127" fill="#1B4872"/><path fill="#007BAB" d="M50.83 51.03l-1.857-1.08-2.64 1.342-.742 3.117.653 1.235-1.21.944-.203 1.883-1.65 1.036-.396 2.195.336 1.44-.764 1.867 2.96 2.458 1.542-1.308 2.108.513 1.42-1.81 1.84-.56.655-2.14-.304-9.54-1.745-1.595M59.987 53.232c.014-.11.038-.223.092-.327.386-.747 1.18-1.164 1.47-1.943l-3.467-2.923-5.017 9.423 1.476 1.462s5.313-2.923 5.313-5.845l.132.152M80.7 44.204c3.606 9.77 8.3 15.78 8.3 15.78L110.033 41v14.38l1.217-7.122 1.992-16.655-2.103-2.082-21.143-11.176-4.87-1.205.112-1.097s-11.29 9.862-4.54 28.16z"/><path d="M99.702 23.417l-6.42 18.945 3.54-3.79-4.87 18.526L113 42.362 110 30l-10.298-6.583zm-69.596-7.374s11.29 9.862 4.538 28.16c-3.605 9.772-8.302 15.78-8.302 15.78l-17.93-17.86-3.1 13.258-1.218-7.122-1.992-16.655 2.103-2.082 21.14-11.176 4.87-1.205-.11-1.097z" fill="#34587A"/><path d="M33.205 38.616l-9.353-6.63s3.23 6.694 6.918 7.123c.94.11 2.435-.494 2.435-.494zm48.934 0l9.352-6.63s-3.23 6.694-6.917 7.123c-.942.11-2.436-.494-2.436-.494z" fill="#FFF"/><path fill="#007BAB" d="M15.643 27.877l6.42 16.437-3.542-3.288 4.87 16.072L8.41 42.122l7.233-14.245"/><path d="M51.72 51.845l.172 1.27s0 5.535-.22 6.138c-.018.046-.06.067-.12.067-.74 0-4.42-3.08-4.42-3.08l4.87 5.478s-.275 1.315-.83 1.644c-.02.01-.046.018-.078.018-.843 0-5.622-4.018-5.622-4.018l4.484 5.096s-.29.897-1.257.897c-.155 0-.326-.023-.515-.076-1.08-.3-3.903-3.757-5.096-5.267l-.306 1.692.336 1.44-.035.084c.965.905 3.162 2.652 3.162 2.652l-1.217.822-2.51-2.095-.164.402 2.96 2.458 1.542-1.308 2.108.513 1.42-1.81 1.84-.56.655-2.14-.304-9.54-.855-.78" fill="#0064A0"/><path d="M57.507.006V0h-.014v.006L0 28.386c0 68.606 56.54 91.23 57.493 91.608V120l.007-.004.007.004v-.006C58.46 119.614 115 96.992 115 28.387L57.507.007m0 114.99V115h-.016v-.004C56.625 114.65 5 93.906 5 31.026l52.49-26.02V5l.01.003.007-.003v.006L110 31.026c0 62.88-51.624 83.623-52.493 83.97" fill="#34587A"/></g></svg>