<svg width="1115" height="18" viewBox="0 0 1115 18" xmlns="http://www.w3.org/2000/svg">
  <g fill="none" fill-rule="evenodd">
    <path d="M840.8 11.42h1.74c.37 0 .64.07.8.2.16.14.23.37.23.68 0 .32-.08.55-.24.7-.16.14-.42.2-.8.2h-5.5c-.36 0-.63-.06-.8-.2-.15-.15-.23-.38-.23-.7 0-.3.08-.54.23-.67.16-.14.42-.2.8-.2h1.76V7.45h-1c-.4 0-.6-.06-.8-.2-.2-.14-.3-.37-.3-.7 0-.3 0-.54.2-.68.1-.13.4-.2.8-.2h2.4c.1 0 .2.03.3.1.1.06.1.14.1.25v5.4zM839.6 2c.4 0 .66.08.8.23.12.15.18.5.18 1.1 0 .54-.06.9-.17 1.02-.1.13-.4.2-.8.2s-.7-.06-.8-.2c-.1-.1-.2-.36-.2-.74 0-.6.1-1.1.2-1.3.1-.2.4-.3.8-.3zm10.56 3.92h1.75c.4 0 .7.07.8.2.2.14.3.37.3.7 0 .3-.1.53-.2.67-.1.1-.4.2-.8.2h-1.7v3.7h1.6c.4 0 .7 0 .8.2.2.1.3.3.3.7 0 .3 0 .5-.2.7-.1.1-.4.2-.8.2h-4.5c-.3 0-.6-.1-.8-.2-.1-.2-.2-.4-.2-.7 0-.3.1-.6.3-.7.2-.2.5-.2.8-.2h.9V7.7h-.9c-.3 0-.6-.07-.8-.2-.1-.15-.2-.38-.2-.7 0-.32.1-.54.3-.68.2-.13.5-.2.8-.2h.9v-.47c0-1.06.3-1.82.8-2.27.6-.44 1.5-.67 2.8-.67.7 0 1.2.1 1.5.3.4.2.5.4.5.8 0 .3-.1.4-.2.6-.1.2-.3.2-.6.2H852c-.5 0-.86.1-1.07.4-.2.2-.3.6-.3 1.2zm11.6-2.67c.1 0 .2.04.28.1.08.1.12.2.12.3 0 .1-.14.4-.4.83-.2.32-.34.58-.44.8-.44.8-.76 1.57-.96 2.3-.2.74-.3 1.5-.3 2.3 0 .7.1 1.38.25 2.05.2.67.4 1.33.8 2 .2.34.4.75.7 1.24.3.5.5.8.5.92 0 .1 0 .2-.1.2-.1.1-.1.1-.2.1-.2 0-.4-.1-.7-.3-.3-.2-.6-.5-.9-.8-.7-.9-1.3-1.7-1.7-2.7-.4-1-.6-1.9-.6-2.9 0-.9.2-1.8.5-2.7.3-.9.8-1.7 1.4-2.5.4-.5.8-.9 1.1-1.2.4-.3.7-.4.9-.4zm5.4.4c0-.1.05-.2.13-.3 0-.06.1-.1.2-.1.2 0 .5.13.9.4s.7.65 1.1 1.15c.6.77 1 1.57 1.4 2.42.3.85.4 1.73.4 2.65 0 1-.2 1.97-.6 2.9-.4.92-.9 1.8-1.7 2.62-.3.3-.6.6-.9.8-.3.1-.6.2-.8.2-.1 0-.2-.1-.3-.1-.1-.1-.1-.2-.1-.3s.1-.4.4-.9c.2-.3.3-.6.4-.8.4-.9.8-1.6 1-2.4.2-.7.3-1.5.3-2.3 0-.7-.1-1.4-.3-2.1-.2-.7-.4-1.4-.8-2-.2-.4-.4-.8-.7-1.3-.3-.5-.5-.8-.5-.9zm244.92 5.52c-1.2-.1-1.83-.84-1.83-2.18V4.7c0-1.35-.4-1.8-1.87-1.8h-.38V1h.92c2.55 0 3.8.9 3.8 3.36V6.3c0 1.24.27 1.8 1.47 1.8v2.38c-1.2 0-1.5.57-1.5 1.82v1.65c0 2.45-1.3 3.27-3.8 3.27h-1v-1.88h.3c1.4 0 1.8-.46 1.8-1.8v-2.1c0-1.33.6-1.9 1.8-2.02v-.25z" fill="#FFE345"/>
    <path d="M579.8 12.46l-3.13-5.44-3.1 5.47 6.24-.1zM576.65.98L585 15.43l-16.58.08L576.64 1z" fill="#FFE345" fill-rule="nonzero"/>
    <path d="M695.17 5.38c-.35-.23-.8-.34-1.34-.34-.7 0-1.33.16-1.93.5-.3.18-.62.4-.92.68v-.27c0-.24-.1-.44-.27-.56-.1-.2-.3-.2-.5-.2h-1.7c-.3 0-.5.1-.7.2-.1.1-.3.3-.3.7 0 .4.2.7.4.8.2.1.4.2 1.2.2h.1v4.1h-.9c-.3 0-.5 0-.7.2-.1.1-.3.3-.3.7 0 .4.2.6.3.7.2.1.5.2.8.2h5.1c.4 0 .6-.1.8-.2.2-.2.3-.5.3-.8 0-.4-.1-.6-.2-.7-.2-.2-.4-.3-.7-.3H691V8.6c.47-.52.9-.92 1.3-1.17.37-.24.72-.36 1.05-.36.14 0 .33.1.55.2.34.2.6.3.8.3.26 0 .52-.1.74-.32.2-.22.33-.5.33-.8 0-.3-.12-.72-.63-1.05m7.67 2.76h-3.9c.2-.3.4-.56.6-.77.4-.3.9-.5 1.5-.5s1 .2 1.4.5c.3.2.4.5.5.8m2 1.6c.3-.2.4-.5.4-.9 0-1.1-.4-2-1.2-2.7-.8-.8-1.8-1.1-3-1.1-1.3 0-2.4.3-3.2 1.1-.8.7-1.2 1.8-1.2 3s.4 2.2 1.2 3c.8.7 1.9 1.1 3.1 1.1.6 0 1.2-.1 1.8-.2l1.7-.6c.3-.2.5-.3.7-.5.2-.2.3-.5.3-.7 0-.3-.1-.5-.3-.7-.2-.2-.4-.3-.7-.3-.2 0-.5.1-1.5.5-1.5.7-2.7.5-3.4-.1-.3-.3-.5-.6-.5-1.1h4.9c.7 0 1.1-.1 1.3-.3m9 .9c-.2 0-.5 0-1.4.4-.6.2-1.1.4-1.5.4-.2 0-.6-.1-.8-.3 0-.1-.2-.4-.2-1.4v-2h2.7c.3 0 .6-.1.8-.3.2-.1.3-.3.3-.7 0-.4-.2-.6-.3-.7-.2-.2-.4-.2-.8-.2h-3v-1c0-.6 0-.9-.2-1.2-.1-.2-.3-.4-.8-.4-.3 0-.5.1-.7.3-.1.16-.2.42-.2.74v1.6h-.5c-.6 0-.9.04-1.1.16-.2.1-.4.36-.4.8 0 .4.1.6.3.7.1.2.4.27.7.27h.9V10c0 .53 0 .94.1 1.22 0 .3.1.55.2.76.2.46.6.8 1.1 1.04.4.22 1 .33 1.7.33.3 0 .8-.05 1.2-.15.4-.1.9-.24 1.4-.45.3-.14.6-.3.7-.46.2-.2.3-.5.3-.8 0-.3-.1-.5-.3-.7-.2-.2-.4-.3-.7-.3m10.3.9c-.2-.2-.4-.2-.8-.2V6.3c0-.45-.1-.72-.3-.9-.14-.16-.4-.25-.7-.25h-1.65c-.34 0-.6.1-.8.25-.2.2-.3.43-.3.74 0 .3.1.52.27.7.1.14.4.22.7.22h.6v2.8c0 .42-.14.76-.45 1.03-.3.3-.7.4-1.2.4s-.8-.1-1-.3c-.2-.2-.3-.6-.3-1.2V6.2c0-.25 0-.56-.2-.77-.14-.15-.4-.23-.7-.23H716c-.3 0-.52.08-.7.24-.1.12-.27.34-.27.7 0 .45.2.67.4.8.15.1.4.15.7.17v3.1c0 1 .25 1.8.75 2.4.5.6 1.23.8 2.2.8.44 0 .87 0 1.27-.2.24-.1.5-.2.77-.4.05.2.13.3.24.3.16.2.36.2.6.2h1.2c.3 0 .56-.1.74-.2.2-.1.3-.4.3-.7 0-.4-.2-.6-.3-.7m9.2-6.1c-.37-.2-.8-.3-1.36-.3-.65 0-1.3.2-1.9.5-.3.2-.6.4-.9.7V6c0-.25-.1-.45-.28-.58-.14-.1-.33-.15-.56-.15h-1.8c-.3 0-.53.08-.7.24-.15.1-.3.4-.3.7 0 .5.2.7.4.8.1.1.4.2 1.1.2h.1v4.2h-.9c-.3 0-.56.1-.74.3-.2.1-.3.4-.3.7 0 .4.1.6.3.8.12.2.4.3.7.3h5c.36 0 .6 0 .8-.2.17-.1.26-.4.26-.7 0-.4-.13-.6-.3-.7-.14-.2-.4-.2-.7-.2H729v-3c.5-.5.94-.9 1.3-1.1.4-.2.75-.3 1.08-.3.15 0 .3.1.56.2.35.2.6.3.8.3.2 0 .5 0 .75-.3.2-.2.3-.5.3-.8 0-.3-.1-.7-.6-1m9.9 6.1c-.2-.1-.5-.2-.8-.2V8.2c0-.97-.3-1.74-.8-2.3-.5-.57-1.2-.86-2.1-.86-.5 0-.9.1-1.4.28-.2.1-.4.2-.6.34-.1-.1-.2-.2-.3-.27-.2-.2-.4-.2-.6-.2h-1.2c-.4 0-.6 0-.8.2-.2.1-.4.3-.4.7 0 .4.2.6.4.8.1.1.3.1.6.2v4.1c-.3 0-.6 0-.7.1-.2.1-.4.3-.4.7 0 .4.1.6.3.7.2.2.4.2.7.2h1.9c.5 0 .7-.1.9-.2.2-.2.2-.4.2-.8s-.2-.7-.3-.8c-.2-.2-.4-.2-.7-.2V8.4c0-.4.1-.73.4-1 .3-.3.7-.44 1.1-.44.4 0 .7.1.9.34.2.23.3.6.3 1.1v2.83c-.3 0-.5.03-.7.2-.1.1-.3.3-.3.7 0 .36.1.6.3.77.2.15.4.2.9.2h1.7c.4 0 .7-.05.9-.2.2-.1.4-.33.4-.76 0-.4-.2-.6-.3-.74" fill="#FEFEFE"/>
    <path fill="#FFE345" d="M455.3 1v5.55l-5.1-2.77-1.2 1.94 5.1 2.78-5.1 2.78 1.2 1.94 5.1-2.77V16h2.4v-5.55l5.1 2.77 1.2-1.94-5.1-2.78 5.1-2.78-1.2-1.94-5.1 2.77V1"/>
    <path fill="#FEFEFE" d="M315.43 4l-5.7 10L304 4.02M513.72 14.7l-10-5.7 9.98-5.72"/>
    <path fill="#FFE345" d="M235.57 4L232 7.57 228.43 4 227 5.43 230.57 9 227 12.57l1.43 1.43 3.57-3.57 3.57 3.57 1.43-1.43L233.43 9 237 5.43M348.57 4L345 7.57 341.43 4 340 5.43 343.57 9 340 12.57l1.43 1.43 3.57-3.57 3.57 3.57 1.43-1.43L346.43 9 350 5.43"/>
    <path fill="#FEFEFE" d="M251.57 4L248 7.57 244.43 4 243 5.43 246.57 9 243 12.57l1.43 1.43 3.57-3.57 3.57 3.57 1.43-1.43L249.43 9 253 5.43"/>
    <path fill="#FFF" d="M987.5 2v5.18l-4.45-2.6L982 6.42l4.47 2.6-4.47 2.6 1.05 1.8 4.46-2.58V16h2.1v-5.18l4.5 2.6 1.1-1.83-4.5-2.6 4.5-2.6-1-1.8-4.4 2.5V2M123 0v2.55h-3.4v11.9h3.4V17h-6V0"/>
    <path d="M3.86 5.88H5.6c.37 0 .63.07.8.2.14.14.22.37.22.68 0 .3-.08.54-.24.68-.16.13-.42.2-.78.2H3.86v3.7h1.6c.38 0 .64.06.8.2.15.13.23.35.23.66 0 .32-.1.55-.3.7-.2.13-.4.2-.8.2H1c-.37 0-.63-.07-.8-.2-.14-.15-.22-.38-.22-.7 0-.3.07-.53.22-.67.15-.13.42-.2.8-.2h.85v-3.7H1c-.36 0-.62-.06-.8-.2-.1-.13-.2-.35-.2-.66 0-.32.08-.55.23-.68.15-.2.42-.2.8-.2h.85v-.5c0-1.1.27-1.8.8-2.3.56-.5 1.48-.7 2.8-.7.66 0 1.16.1 1.48.2.32.1.48.4.48.7 0 .2-.07.4-.2.5-.15.1-.35.2-.6.2-.16 0-.42 0-.74-.1h-.68c-.5 0-.85.1-1.05.3-.2.2-.3.6-.3 1.2v.3zM14.53 7.4h-.13c-.3 0-.5-.06-.65-.2-.15-.17-.23-.4-.23-.68 0-.3.08-.54.23-.67.15-.14.4-.2.78-.2h1.53c.14 0 .25.03.33.1 0 .05.1.13.1.24v5.3h.1c.3 0 .5.1.6.2.1.1.2.3.2.6s-.1.5-.3.7c-.2.1-.4.2-.8.2H15c-.14 0-.26-.1-.34-.1-.06-.1-.1-.2-.1-.3V12c-.26.38-.58.67-.95.86-.3.2-.8.3-1.3.3-.8 0-1.5-.27-1.9-.8-.4-.5-.6-1.3-.6-2.4V7.4h-.1c-.3 0-.5-.06-.6-.2-.1-.17-.2-.4-.2-.68 0-.3.1-.54.3-.67.1-.14.4-.2.8-.2h1.5c.1 0 .2.03.3.1.1.05.2.13.2.24v3.7c0 .6.1 1.1.3 1.4.2.2.5.4.9.4.5 0 .8-.2 1.1-.5.3-.4.5-.8.5-1.3V7.4zm12.02 3.9h.1c.3 0 .54.1.7.24.14.14.2.37.2.66 0 .32-.06.55-.22.7-.15.13-.4.2-.78.2h-1.98c-.36 0-.62-.07-.78-.2-.2-.15-.3-.38-.3-.7 0-.3 0-.52.2-.66.1-.15.4-.23.7-.23h.1V9c0-.64-.1-1.1-.3-1.37-.2-.26-.5-.4-.9-.4-.5 0-.8.16-1.1.5-.3.3-.4.75-.4 1.28v2.4c.3 0 .5.1.7.3.1.2.2.4.2.7 0 .3-.1.6-.2.7-.2.2-.4.2-.8.2h-2c-.4 0-.7 0-.8-.2-.2-.1-.3-.4-.3-.7 0-.3.1-.5.2-.6.1-.1.4-.2.7-.2h.1v-4h-.2c-.3 0-.5 0-.7-.2-.2-.1-.2-.3-.2-.6s.1-.5.2-.7c.1-.1.4-.2.8-.2H21c.15 0 .26 0 .34.1.1.1.13.1.13.3v.6c.2-.4.53-.7.9-.9.4-.2.84-.3 1.35-.3.9 0 1.5.3 1.95.8.4.5.64 1.3.64 2.4v2.7zm8.92-5.22c.07-.2.17-.37.3-.47.14-.1.32-.1.53-.1.3 0 .5.1.63.3.12.2.18.5.18.9V8c0 .32 0 .56-.2.72-.1.15-.3.23-.6.23-.2 0-.3-.04-.5-.13-.1-.1-.3-.3-.4-.55-.2-.36-.5-.63-.8-.8-.3-.18-.7-.27-1.2-.27-.6 0-1.1.2-1.5.6-.4.4-.6.93-.6 1.57 0 .67.2 1.2.6 1.62.5.4 1 .6 1.7.6.6 0 1.3-.2 1.9-.6.6-.4 1-.6 1.2-.6.2 0 .4.1.5.2.1.1.2.3.2.6 0 .5-.4.9-1.1 1.3-.7.4-1.6.6-2.7.6-1.3 0-2.3-.4-3.2-1.1-.8-.8-1.2-1.7-1.2-2.8 0-1.2.4-2.1 1.2-2.8.8-.8 1.9-1.2 3.1-1.2.4 0 .8 0 1.2.1.4.1.8.3 1.2.5zm6.96.02h2.46c.3 0 .6.06.7.2.1.13.2.36.2.67 0 .3-.1.54-.3.68s-.4.2-.8.2h-2.4v2.08c0 .58.1.98.2 1.2.1.2.5.3.9.3s.9-.1 1.5-.35c.5-.24.9-.36 1.1-.36.2 0 .4.08.5.26.1.17.2.4.2.63 0 .5-.4.8-1.2 1.2-.8.4-1.6.5-2.6.5-.6 0-1.1 0-1.5-.2-.4-.1-.8-.3-1-.6-.2-.2-.3-.5-.4-.8-.1-.3-.1-.8-.1-1.5V7.9h-.8c-.4 0-.7-.07-.8-.2-.2-.15-.2-.38-.2-.7 0-.3.1-.53.2-.67.2-.15.4-.2.8-.2h.8V4.2c0-.36.1-.62.2-.77.1-.15.4-.23.8-.23s.6.08.7.23c.1.15.2.4.2.78v1.9zm11.6 5.23h1.73c.37 0 .64.07.8.2.15.14.23.36.23.67 0 .32-.1.55-.3.7-.2.13-.4.2-.8.2h-5.4c-.4 0-.7-.07-.8-.2-.2-.15-.3-.38-.3-.7 0-.3 0-.53.2-.67.1-.13.4-.2.8-.2H52V7.4h-.92c-.35 0-.6-.06-.76-.2-.16-.13-.23-.36-.23-.68 0-.3.1-.54.2-.67.1-.14.4-.2.8-.2h2.4c.1 0 .2.03.3.1.1.05.1.13.1.24v5.3zM52.87 2c.4 0 .65.08.78.23.13.15.2.5.2 1.08 0 .6-.06.9-.18 1.1s-.4.2-.82.2c-.42 0-.7 0-.8-.2-.13-.1-.2-.3-.2-.7 0-.7.07-1.1.2-1.3.12-.2.4-.3.82-.3zm9.94 5.17c-.6 0-1.1.2-1.5.62-.4.4-.6.9-.6 1.5s.2 1.2.6 1.6c.4.4.9.6 1.6.6s1.2-.2 1.6-.7c.4-.4.6-1 .6-1.6 0-.7-.2-1.2-.6-1.6-.4-.4-.9-.6-1.5-.6zm0-1.7c1.4 0 2.4.36 3.2 1.1.8.73 1.2 1.66 1.2 2.8 0 1.16-.4 2.1-1.2 2.83-.8.73-1.8 1.1-3.2 1.1-1.3 0-2.3-.37-3.1-1.1-.8-.73-1.2-1.67-1.2-2.82s.4-2.08 1.3-2.82c.8-.73 1.9-1.1 3.2-1.1zm13.3 5.84h.1c.3 0 .6.1.7.3.2.2.3.4.3.7 0 .4-.1.6-.2.7-.1.2-.4.2-.8.2h-2c-.3 0-.6 0-.7-.2-.1-.1-.2-.3-.2-.7 0-.3.1-.5.3-.6.2-.1.4-.2.7-.2h.1V9c0-.64-.1-1.1-.2-1.37-.2-.26-.5-.4-.9-.4s-.8.16-1.1.5c-.2.3-.4.75-.4 1.28v2.4h.1c.3 0 .5.1.7.3.2.2.3.4.3.7 0 .3-.1.6-.2.7-.1.2-.4.2-.7.2h-2c-.3 0-.6 0-.7-.2-.1-.1-.2-.4-.2-.7 0-.3.1-.5.2-.6.2-.1.4-.2.7-.2h.1v-4H70c-.3 0-.5 0-.66-.2-.15-.1-.2-.3-.2-.6s.05-.5.2-.7c.2-.1.46-.2.8-.2h1.4c.17 0 .3 0 .36.1.1.1.1.1.1.3v.6c.3-.4.6-.7 1-.9.4-.2.8-.3 1.3-.3.85 0 1.5.3 1.9.8.4.5.6 1.3.6 2.4v2.7zm8.7-8c.1 0 .2.1.3.2.1.1.2.2.2.3 0 .1-.1.4-.4.9l-.4.8c-.4.8-.7 1.6-.9 2.3-.2.8-.3 1.5-.3 2.3 0 .7.1 1.4.3 2.1.2.7.4 1.3.7 2 .2.4.4.8.7 1.3.3.5.4.8.4.9 0 .1 0 .2-.1.3-.1.1-.1.1-.2.1-.2 0-.4-.1-.7-.2-.3-.2-.6-.4-.9-.8-.7-.8-1.3-1.7-1.6-2.6-.4-.9-.5-1.9-.5-2.8 0-.9.2-1.8.5-2.6s.8-1.6 1.4-2.4c.4-.5.8-.8 1.1-1.1.3-.2.6-.4.9-.4zm5.4.4c0-.1.1-.2.1-.2.1-.1.2-.1.3-.1.3 0 .6.2.9.4.4.3.7.7 1.1 1.2.6.8 1.1 1.6 1.4 2.4.3.9.5 1.7.5 2.6 0 1-.2 2-.5 2.9-.4.9-.9 1.8-1.6 2.6-.3.4-.6.6-.9.8-.3.2-.5.3-.7.3-.1 0-.2 0-.3-.1-.1-.1-.1-.2-.1-.3 0-.1.1-.4.4-.8.2-.3.3-.6.5-.8.5-.8.8-1.5 1-2.3.2-.7.3-1.5.3-2.2 0-.7-.1-1.4-.2-2.1-.1-.6-.4-1.3-.7-1.9-.2-.3-.4-.8-.7-1.2-.3-.4-.4-.7-.4-.9z" fill="#FFE345"/>
  </g>
</svg>
