<svg width="1111" height="21" viewBox="0 0 1111 21" xmlns="http://www.w3.org/2000/svg">
  <g fill="none" fill-rule="evenodd">
  <path d="M1103 17.5c-4.14 0-7.5-3.36-7.5-7.5 0-4.14 3.36-7.5 7.5-7.5 4.14 0 7.5 3.36 7.5 7.5 0 4.14-3.36 7.5-7.5 7.5zm0-3c2.5 0 4.5-2 4.5-4.5s-2-4.5-4.5-4.5-4.5 2-4.5 4.5 2 4.5 4.5 4.5z" fill="#FFE345" fill-rule="nonzero"/>
  <circle fill="#FFF" cx="833" cy="10" r="6"/>
  <path d="M2.58 10.5c1.45.14 2.23.86 2.23 2.53v2.6c0 1.68.5 2.25 2.3 2.25h.5v2.34H6.5c-3.1 0-4.64-1.02-4.64-4.08V14.1c0-1.57-.37-2.28-1.8-2.28V8.87c1.43 0 1.8-.72 1.8-2.27V4.2C1.8 1.1 3.3 0 6.4 0h1.13v2.35H7.1c-1.8 0-2.3.58-2.3 2.25v2.87c0 1.67-.77 2.58-2.22 2.7v.33z" fill="#FFE345"/>
  <path d="M519.3 11.54h1.58c.33 0 .57.06.7.18.16.12.23.33.23.6 0 .3 0 .5-.2.64-.1.13-.4.2-.7.2H516c-.33 0-.57-.07-.7-.2-.16-.13-.23-.34-.23-.63 0-.28.08-.5.2-.6.16-.13.4-.2.74-.2h1.6V7.96h-.8c-.3 0-.6-.06-.7-.2-.1-.1-.2-.32-.2-.6 0-.3.1-.5.2-.63.2-.12.4-.18.8-.18h2.2c.2 0 .3.02.3.08.1.06.1.13.1.23v4.9zM518.25 3c.36 0 .6.07.7.2.13.14.2.47.2 1 0 .5-.07.8-.17.93-.1.12-.35.18-.74.18-.4 0-.63 0-.74-.1-.1-.1-.17-.3-.17-.7 0-.6.06-1 .17-1.2.12-.1.36-.2.75-.2zm9.5 3.55h1.57c.33 0 .57.06.7.2.16.1.23.32.23.6 0 .3-.08.5-.22.62-.14.13-.38.2-.7.2h-1.6v3.37h1.47c.34 0 .58.06.72.18s.2.33.2.6c0 .3-.06.5-.2.64-.15.13-.4.2-.72.2h-4.03c-.34 0-.58-.07-.72-.2s-.2-.34-.2-.63c0-.28.06-.5.2-.6.13-.13.38-.2.72-.2h.77V8.18h-.77c-.34 0-.58-.07-.72-.2-.14-.12-.2-.33-.2-.62 0-.3.06-.5.2-.62.13-.12.38-.18.72-.18h.77v-.42c0-.97.25-1.65.74-2.06.5-.4 1.33-.6 2.52-.6.6 0 1.07.07 1.36.22.3.13.43.36.43.67 0 .2-.1.37-.2.5-.2.12-.3.18-.6.18-.2 0-.4-.02-.7-.07l-.6-.06c-.5 0-.8.1-1 .3-.2.2-.3.57-.3 1.1v.23zm10.42-2.42c.1 0 .18.03.25.1.07.08.1.16.1.26s-.1.3-.35.7l-.4.7c-.4.7-.68 1.4-.86 2.1-.1.7-.2 1.3-.2 2.1 0 .6.1 1.2.2 1.8.2.6.4 1.2.7 1.8l.7 1.1c.3.4.4.7.4.8 0 .1 0 .2-.1.2 0 0-.1.1-.2.1-.2 0-.4-.1-.7-.3-.2-.2-.5-.4-.8-.76-.6-.7-1.1-1.5-1.5-2.35-.3-.84-.5-1.7-.5-2.6 0-.8.2-1.6.5-2.4.3-.75.7-1.5 1.27-2.2.37-.44.7-.8 1-1.04.33-.25.6-.37.8-.37zm4.86.36c0-.1.04-.2.1-.3.07-.1.15-.1.25-.1.22 0 .48.1.8.3.3.2.65.6 1 1 .56.7.98 1.4 1.26 2.2.27.7.4 1.5.4 2.4 0 .9-.15 1.7-.5 2.6-.33.8-.83 1.6-1.5 2.4-.27.3-.55.5-.8.7-.26.1-.5.2-.68.2-.1 0-.16-.1-.23-.1-.06-.1-.1-.2-.1-.3 0-.1.12-.38.36-.78.1-.28.3-.5.4-.7.4-.73.6-1.43.8-2.1.1-.66.2-1.35.2-2.07 0-.64-.1-1.26-.2-1.87-.2-.6-.4-1.2-.7-1.8l-.7-1.16c-.3-.42-.4-.7-.4-.8z" fill="#FFF"/>
  <path fill="#FFE345" d="M945.5 3v5.18l-4.45-2.6L940 7.42l4.47 2.6-4.47 2.6 1.05 1.8 4.46-2.58V17h2.1v-5.18l4.5 2.6 1.1-1.83-4.4-2.6 4.5-2.6-1-1.8-4.4 2.5V3M647.5 3v5.18l-4.45-2.6L642 7.42l4.47 2.6-4.47 2.6 1.05 1.8 4.46-2.58V17h2.1v-5.18l4.5 2.6 1.1-1.83-4.4-2.6 4.5-2.6-1-1.8-4.4 2.5V3M74 8.4l-3.57-3.62L69 6.22l3.58 3.6L69 13.45l1.43 1.45L74 11.27l3.6 3.6 1.43-1.44-3.58-3.6 3.58-3.62-1.43-1.4"/>
  <path fill="#FFF" d="M99.2 4.78l-3.58 3.6-3.58-3.6-1.44 1.44 3.58 3.6-3.58 3.62 1.44 1.45 3.58-3.7 3.58 3.6 1.43-1.5-3.58-3.6 3.58-3.6"/>
  <path fill="#FFE345" d="M122.6 5L119 8.6 115.44 5 114 6.44l3.58 3.62-3.58 3.6 1.43 1.45 3.58-3.6 3.6 3.6 1.5-1.4-3.6-3.6 3.6-3.6M381.6 5L378 8.6 374.44 5 373 6.44l3.58 3.62-3.58 3.6 1.43 1.45 3.58-3.6 3.6 3.6 1.5-1.4-3.6-3.6 3.6-3.6"/>
  <path fill="#FFF" d="M431.6 5L428 8.6 424.44 5 423 6.44l3.58 3.62-3.58 3.6 1.43 1.45 3.58-3.6 3.6 3.6 1.5-1.4-3.6-3.6 3.6-3.6M150 7.5l-.85-1.4-3.68 2V4h-1.72v4.03l-3.68-2-.86 1.4 3.7 2.02-3.7 2 .9 1.42 3.7-2v4.02h1.7v-4.1l3.7 2 .9-1.4-3.6-2M981.6 5L978 8.6 974.44 5 973 6.44l3.58 3.62-3.58 3.6 1.43 1.45 3.58-3.6 3.6 3.6 1.5-1.4-3.6-3.6 3.6-3.6"/>
  <path d="M277.3 5.93l-5.7 3.67 5.7 3.6-.03-7.27zm-11.25 3.7l14.2-9.2.1 18.23-14.3-9.03z" fill="#FFE345" fill-rule="nonzero"/>
  <path stroke="#FFF" stroke-width="3" d="M306.97 14.45l-6-3.7L306.93 7z"/>
  <path d="M715.44 16.93l10-6.15-9.94-6.25" fill="#FFF"/>
  </g>
</svg>
